<svg width="60" height="60" viewBox="0 0 1088 1088" fill="none" xmlns="http://www.w3.org/2000/svg">
<rect width="1088" height="1088" fill="#C2FBFF"/>
<path d="M944.702 382.522L448.751 382.712L455.77 304H312.108V358.886H354.234H395.771L393.492 384.46L381.665 517.124H143V572.01H376.772L373.156 612.578H264.196V667.464H368.262L366.008 692.751H833.714L944.702 382.522ZM426.005 637.866L431.876 572.011H476.794V517.125H436.769L443.859 437.6L866.763 437.439L795.058 637.866H426.005V637.866Z" fill="#0C3763"/>
<path d="M672.438 857.655C686.57 874.397 707.942 883.999 731.075 883.999C776.409 883.999 817.946 848.631 825.635 803.481C829.608 780.157 823.677 757.054 809.362 740.094C795.23 723.352 773.858 713.749 750.725 713.749H434.539C389.205 713.749 347.668 749.117 339.978 794.266C336.005 817.591 341.937 840.696 356.252 857.656C370.384 874.397 391.756 884 414.888 884C460.223 884 501.759 848.632 509.449 803.482C511.482 791.543 510.914 779.664 507.962 768.635H664.562C660.576 776.655 657.695 785.265 656.161 794.266C652.191 817.59 658.122 840.694 672.438 857.655ZM451.234 775.495C455.155 780.14 456.614 786.806 455.344 794.265C452.181 812.828 433.277 829.114 414.889 829.114C407.757 829.114 401.983 826.74 398.195 822.253C394.273 817.608 392.814 810.942 394.085 803.482C397.247 784.92 416.152 768.635 434.539 768.635C441.672 768.634 447.445 771.007 451.234 775.495ZM767.42 775.495C771.34 780.14 772.8 786.806 771.528 794.265C768.367 812.828 749.463 829.114 731.075 829.114C723.941 829.114 718.169 826.74 714.38 822.253C710.459 817.608 709 810.942 710.271 803.482C713.433 784.92 732.336 768.635 750.725 768.635C757.858 768.634 763.631 771.007 767.42 775.495Z" fill="#366796"/>
<path d="M357.207 425.276H209.666V480.162H357.207V425.276Z" fill="#5488A8"/>
</svg>
